<svg xmlns="http://www.w3.org/2000/svg" width="470" height="391">
    <defs>
        <linearGradient id="prefix__a" x1="0%" x2="22.495%" y1="97.437%" y2="0%">
            <stop offset="0%" stop-color="#FF8F5A"/>
            <stop offset="99%" stop-color="#FF2F96"/>
        </linearGradient>
    </defs>
    <path fill="#6055C4" fill-rule="evenodd" d="M201.92 21.253C256.483-4.54 307.974-4.62 351.023 14.742c43.16 19.205 77.879 57.851 101.462 105.879 22.629 48.505 22.605 100.605 4.124 142.751-18.738 42.774-49.924 75.022-92.421 98.037-22.507 11.589-46.165 19.528-76.24 24.401-29.678 4.802-65.775 6.538-104.018 4.061-75.895-4.765-160.953-27.136-178.891-77.596-10.165-25.056-3.784-53.778 8.854-82.683 12.845-28.946 31.949-58.075 52.006-84.919 20.264-26.886 41.483-51.487 63.328-72.351 22.052-20.906 44.731-38.074 72.693-51.069z"/>
    <path fill="url(#prefix__a)" d="M201.92 21.253C256.483-4.54 307.974-4.62 351.023 14.742c43.16 19.205 77.879 57.851 101.462 105.879 22.629 48.505 22.605 100.605 4.124 142.751-18.738 42.774-49.924 75.022-92.421 98.037-22.507 11.589-46.165 19.528-76.24 24.401-29.678 4.802-65.775 6.538-104.018 4.061-75.895-4.765-160.953-27.136-178.891-77.596-10.165-25.056-3.784-53.778 8.854-82.683 12.845-28.946 31.949-58.075 52.006-84.919 20.264-26.886 41.483-51.487 63.328-72.351 22.052-20.906 44.731-38.074 72.693-51.069z"/>
</svg>
